<svg width="128" height="128" viewBox="0 0 128 128" fill="none" xmlns="http://www.w3.org/2000/svg">
  <defs>
    <linearGradient id="gradLanding" x1="0" y1="0" x2="128" y2="128" gradientUnits="userSpaceOnUse">
      <stop offset="0%" stop-color="#7CA1FF"/>
      <stop offset="50%" stop-color="#D16FFF"/>
      <stop offset="100%" stop-color="#FF8686"/>
    </linearGradient>
  </defs>
  <rect x="8" y="8" width="112" height="112" rx="24" fill="#0f0f14"/>
  <path d="M57.7842 44.4772C59.5943 44.4772 61.0616 43.0098 61.0616 41.1998V29.8375C61.0616 28.0274 59.5943 26.5601 57.7842 26.5601H6.3174C4.50733 26.5601 3.03998 28.0274 3.03998 29.8375V41.1998C3.03998 43.0098 4.50733 44.4772 6.3174 44.4772H19.3462C21.1562 44.4772 22.6236 45.9445 22.6236 47.7546V98.0075C22.6236 99.8176 24.0909 101.285 25.901 101.285H38.2006C40.0107 101.285 41.478 99.8176 41.478 98.0075V47.7546C41.478 45.9445 42.9454 44.4772 44.7555 44.4772H57.7842ZM121.892 49.4307C122.308 35.2024 111.996 26.6655 97.933 26.6655H71.6267C69.8166 26.6655 68.3493 28.1328 68.3493 29.9429V98.0075C68.3493 99.8176 69.8166 101.285 71.6267 101.285H98.454C114.808 101.285 122.829 94.0127 124.704 81.9977C125.587 76.6363 124.529 67.8144 115.957 62.4923C115.277 62.0701 115.269 61.0168 115.916 60.5454C120.053 57.5316 121.799 52.4355 121.892 49.4307ZM90.2131 55.8598C88.4935 55.8598 87.0995 54.4658 87.0995 52.7463V45.6936C87.0995 43.974 88.4935 42.5801 90.2131 42.5801H97.933C107.308 42.5801 106.996 55.8598 97.933 55.8598H90.2131ZM90.2131 84.738C88.4935 84.738 87.0995 83.344 87.0995 81.6244V72.5693C87.0995 70.8497 88.4935 69.4557 90.2131 69.4557H97.933C108.975 69.4557 109.183 84.738 97.933 84.738H90.2131Z" transform="translate(2 2) scale(0.95)" fill="url(#gradLanding)"/>
</svg>


